<svg width="113" height="114" viewBox="0 0 113 114" fill="none" xmlns="http://www.w3.org/2000/svg">
<circle cx="70.8108" cy="41.5" r="41.5" fill="#E3FFD1"/>
<path d="M79.0025 43.6304C79.0025 41.1426 76.9785 39.1185 74.4906 39.1185H61.9326C61.102 39.1185 60.4286 39.7919 60.4286 40.6225C60.4286 41.4531 61.102 42.1264 61.9326 42.1264H74.4906C75.3199 42.1264 75.9946 42.8011 75.9946 43.6304V52.6636H5.00791V43.6304C5.00791 42.8011 5.68258 42.1264 6.51186 42.1264H25.2487C26.0794 42.1264 26.7527 41.4531 26.7527 40.6225C26.7527 39.7919 26.0794 39.1185 25.2487 39.1185H6.51186C4.02402 39.1185 2 41.1426 2 43.6304V54.1676C2 54.1874 2.00226 54.2065 2.00301 54.2262C2.00226 54.2458 2 54.265 2 54.2849V59.5392C2 62.1047 3.3328 64.3633 5.34104 65.6636C5.31998 65.7638 5.3087 65.8674 5.3087 65.9737V104.992H3.50395C2.67332 104.992 2 105.665 2 106.496C2 107.327 2.67332 108 3.50395 108H77.4985C78.3292 108 79.0025 107.327 79.0025 106.496C79.0025 105.665 78.3292 104.992 77.4985 104.992H75.6938V65.9734C75.6938 65.8671 75.6824 65.7635 75.6614 65.6633C77.6697 64.363 79.0025 62.1044 79.0025 59.5389V54.2846C79.0025 54.2647 79.0002 54.2456 78.9995 54.2259C79.0002 54.2064 79.0025 54.1871 79.0025 54.1673V43.6304ZM54.3375 55.6714H63.6621V59.5389C63.6621 61.9016 61.7399 63.8238 59.3772 63.8238H58.6224C56.2597 63.8238 54.3375 61.9016 54.3375 59.5389V55.6714ZM42.005 55.6714H51.3297V59.5389C51.3297 61.9016 49.4075 63.8238 47.0448 63.8238H46.29C43.9272 63.8238 42.005 61.9016 42.005 59.5389V55.6714ZM29.6726 55.6714H38.9973V59.5389C38.9973 61.9016 37.0751 63.8238 34.7124 63.8238H33.9575C31.5948 63.8238 29.6726 61.9016 29.6726 59.5389V55.6714ZM17.3402 55.6714H26.6649V59.5389C26.6649 61.9016 24.7427 63.8238 22.3799 63.8238H21.6251C19.2624 63.8238 17.3402 61.9016 17.3402 59.5389V55.6714ZM5.00791 59.5389V55.6714H14.3324V59.5389C14.3324 61.9016 12.4102 63.8238 10.0475 63.8238H9.29268C6.93011 63.8238 5.00791 61.9016 5.00791 59.5389ZM36.8918 104.992H16.438V75.5142H36.8918V104.992ZM72.6859 94.1633H48.9234V75.5142H72.6859V94.1633ZM72.6868 72.5063H72.6859H47.4194C46.5888 72.5063 45.9155 73.1796 45.9155 74.0103V95.6672C45.9155 96.4979 46.5888 97.1712 47.4194 97.1712H72.6859V104.992H39.8997V74.0103C39.8997 73.1796 39.2263 72.5063 38.3957 72.5063H14.934C14.1034 72.5063 13.4301 73.1796 13.4301 74.0103V104.992H8.31661V66.7645C8.6362 66.8075 8.96166 66.8318 9.29283 66.8318H10.0477C12.4044 66.8318 14.5024 65.7071 15.8365 63.9673C17.1705 65.7071 19.2686 66.8318 21.6254 66.8318H22.3802C24.7369 66.8318 26.835 65.7071 28.1691 63.9673C29.5031 65.7071 31.6011 66.8318 33.958 66.8318H34.7128C37.0695 66.8318 39.1675 65.7071 40.5017 63.9673C41.8357 65.7071 43.9337 66.8318 46.2906 66.8318H47.0454C49.4021 66.8318 51.5001 65.7071 52.8343 63.9673C54.1683 65.7071 56.2663 66.8318 58.6231 66.8318H59.378C61.7347 66.8318 63.8327 65.7071 65.1669 63.9673C66.5009 65.7071 68.5989 66.8318 70.9557 66.8318H71.7106C72.0417 66.8318 72.3672 66.8075 72.6868 66.7645V72.5063ZM75.9944 59.5389C75.9946 61.9016 74.0724 63.8238 71.7097 63.8238H70.9548C68.5921 63.8238 66.6699 61.9016 66.6699 59.5389V55.6714H75.9944V59.5389Z" fill="#4D8D63"/>
<path d="M33.1422 89.1897C32.8625 88.91 32.4744 88.749 32.0789 88.749C31.6834 88.749 31.2953 88.91 31.0156 89.1897C30.7359 89.4694 30.575 89.8574 30.575 90.253C30.575 90.6485 30.7359 91.0365 31.0156 91.3163C31.2953 91.596 31.6834 91.7569 32.0789 91.7569C32.4744 91.7569 32.8625 91.596 33.1422 91.3163C33.4219 91.0365 33.5829 90.6485 33.5829 90.253C33.5829 89.8574 33.4219 89.4694 33.1422 89.1897Z" fill="#4D8D63"/>
<path d="M48.0847 32.738C45.7673 30.4207 41.9966 30.4206 39.6791 32.738L32.9175 39.4997C31.7948 40.6222 31.1765 42.1149 31.1765 43.7025C31.1765 45.29 31.7948 46.7827 32.9173 47.9053C34.0761 49.0641 35.5981 49.6434 37.1203 49.6434C38.6423 49.6434 40.1643 49.0639 41.3231 47.9053L44.7028 44.5254C44.7031 44.5251 44.7035 44.5248 44.704 44.5244C44.7044 44.5239 44.7046 44.5236 44.705 44.5232L48.0847 41.1435C49.2073 40.0211 49.8256 38.5284 49.8256 36.9408C49.8256 35.3533 49.2073 33.8607 48.0847 32.738ZM39.1961 45.7784C38.0515 46.9232 36.189 46.923 35.0444 45.7784C34.4897 45.224 34.1844 44.4866 34.1844 43.7025C34.1844 42.9183 34.4897 42.1812 35.0444 41.6267L37.3617 39.3094L41.5133 43.4611L39.1961 45.7784ZM45.9577 39.0167L43.6404 41.334L39.4887 37.1824L41.806 34.8649C42.3783 34.2925 43.1301 34.0065 43.8819 34.0065C44.6338 34.0065 45.3854 34.2927 45.9577 34.8649C46.5123 35.4194 46.8176 36.1567 46.8176 36.9408C46.8176 37.725 46.5123 38.4622 45.9577 39.0167Z" fill="#4D8D63"/>
<path d="M66.289 83.3236H62.2924V79.327C62.2924 78.4963 61.6191 77.823 60.7885 77.823C59.9578 77.823 59.2845 78.4963 59.2845 79.327V83.3236H55.2879C54.4573 83.3236 53.7839 83.9969 53.7839 84.8275C53.7839 85.6582 54.4573 86.3315 55.2879 86.3315H59.2845V90.3281C59.2845 91.1587 59.9578 91.832 60.7885 91.832C61.6191 91.832 62.2924 91.1587 62.2924 90.3281V86.3315H66.289C67.1197 86.3315 67.793 85.6582 67.793 84.8275C67.793 83.9969 67.1197 83.3236 66.289 83.3236Z" fill="#4D8D63"/>
<path d="M22.1531 79.625C21.3225 79.625 20.6492 80.2983 20.6492 81.129V93.6619C20.6492 94.4925 21.3225 95.1658 22.1531 95.1658C22.9838 95.1658 23.6571 94.4925 23.6571 93.6619V81.129C23.6571 80.2983 22.9838 79.625 22.1531 79.625Z" fill="#4D8D63"/>
<path d="M23.2164 98.3127C22.9367 98.033 22.5487 97.8735 22.1531 97.8735C21.7576 97.8735 21.3696 98.033 21.0898 98.3127C20.8101 98.5939 20.6492 98.9804 20.6492 99.3775C20.6492 99.773 20.8101 100.161 21.0898 100.441C21.3696 100.721 21.7576 100.881 22.1531 100.881C22.5487 100.881 22.9367 100.721 23.2164 100.441C23.4962 100.16 23.6571 99.773 23.6571 99.3775C23.6571 98.9804 23.4962 98.5939 23.2164 98.3127Z" fill="#4D8D63"/>
</svg>
