<svg width="113" height="114" viewBox="0 0 113 114" fill="none" xmlns="http://www.w3.org/2000/svg">
<circle cx="70.8108" cy="41.5" r="41.5" fill="#E3FFD1"/>
<path d="M24.1341 46.384C24.7469 46.2019 25.0959 45.5577 24.914 44.945C24.7321 44.3322 24.0879 43.9831 23.475 44.165C21.3809 44.7871 19.5183 45.9192 18.0885 47.4386C14.1081 51.6687 14.8165 57.3613 14.9991 58.4594C15.0932 59.0258 15.5837 59.4272 16.1394 59.4272C16.8443 59.4272 17.3987 58.7798 17.2825 58.08C17.1315 57.1706 16.5415 52.4604 19.7743 49.0248C21.2269 47.4812 22.9469 46.7366 24.1341 46.384ZM49.8432 40.486C48.3557 41.9733 48.338 44.4667 49.843 45.9573L52.847 48.9615C53.7472 49.8613 54.9457 50.357 56.2214 50.357C57.4973 50.357 58.6959 49.8612 59.5963 48.9611L68.0634 40.4938C69.6106 38.9594 69.5276 36.3479 67.929 34.894C66.3997 33.5028 64.0317 33.5827 62.5378 35.0765L56.2214 41.3929L55.3148 40.4864C53.8306 38.9869 51.3319 38.9974 49.8432 40.486ZM56.2214 43.9624C56.6756 43.9624 57.1024 43.7856 57.4232 43.4646L64.1745 36.7134C64.7823 36.1053 65.7678 36.0574 66.371 36.6061C67.017 37.1936 67.0496 38.2411 66.4266 38.857L57.9595 47.3242C57.4964 47.7873 56.8791 48.0423 56.2213 48.0423C55.5637 48.0423 54.9465 47.7873 54.4835 47.3247L51.4799 44.3207C50.8791 43.7258 50.8819 42.7206 51.4799 42.1229C52.0783 41.5248 53.0823 41.5216 53.6778 42.1229L55.0196 43.4647C55.3406 43.7856 55.7673 43.9624 56.2211 43.9624H56.2214ZM60.0466 25.0019C59.4075 24.9658 58.8589 25.446 58.8186 26.084C58.7783 26.7219 59.2626 27.2718 59.9005 27.3122C67.6912 27.8049 73.794 34.3108 73.794 42.1231C73.794 50.4624 66.9732 56.964 58.9533 56.964C50.7702 56.964 44.1126 50.3064 44.1126 42.1231C44.1126 35.535 48.5377 29.6665 54.8736 27.8523C55.4881 27.6764 55.8437 27.0357 55.6677 26.4212C55.4918 25.8068 54.8509 25.4505 54.2364 25.627C47.704 27.4974 42.9322 33.0974 41.9767 39.6897C40.994 40.3664 39.9547 41.1299 38.9755 41.6205C37.3767 42.4216 36.0208 42.4939 34.4428 41.8632C33.2669 41.3924 32.2938 40.6952 31.2634 39.957C29.5702 38.744 27.8195 37.4897 25.174 37.2958C22.0077 37.0654 18.4381 38.1135 15.3806 40.1721C11.2946 42.9229 8.64247 47.9333 8.10436 53.9183C7.85807 56.649 8.04819 59.2412 8.66963 61.6226C9.11036 63.3141 9.87608 64.8815 10.6165 66.3972C11.2941 67.7841 11.9339 69.0942 12.3407 70.4829C13.1496 73.2453 13.0471 75.9891 12.9385 78.8937C12.8985 79.9643 12.8572 81.0716 12.8635 82.1885C12.8982 88.5687 12.9414 96.509 18.0294 101.097C20.0584 102.926 23.2913 104.841 25.9328 103.599C27.8832 102.682 28.1881 100.634 28.6104 97.7995C28.8292 96.3301 29.1015 94.501 29.6488 92.3429C29.7745 91.8466 29.9009 91.3048 30.0347 90.7314C30.2185 89.9437 30.4967 88.8206 29.3593 88.5527C28.2449 88.2902 27.9724 89.3828 27.7804 90.2054C27.6491 90.7681 27.5252 91.2994 27.4048 91.7742C26.8291 94.0452 26.5471 95.9379 26.3207 97.4588C25.9431 99.9944 25.7427 101.131 24.9482 101.505C23.662 102.109 21.2223 100.86 19.5797 99.3779C15.2505 95.4746 15.2105 88.1009 15.1783 82.1757C15.1721 81.1086 15.2127 80.0267 15.2517 78.9804C15.3624 76.0187 15.4769 72.9563 14.5622 69.8326C14.1001 68.255 13.3865 66.7943 12.6964 65.3815C11.9742 63.903 11.2919 62.5066 10.9094 61.0387C10.3557 58.9162 10.1875 56.5907 10.4099 54.1262C10.8853 48.8382 13.1683 44.4522 16.6734 42.0926C19.3095 40.3179 22.346 39.4111 25.0055 39.6046C27.001 39.7509 28.3516 40.7187 29.9156 41.839C31.0125 42.6248 32.1467 43.4373 33.5832 44.0126C35.7789 44.8903 37.8219 44.7877 40.0129 43.6902C40.6348 43.3783 41.2292 43.0081 41.8059 42.6212C42.0705 51.8513 49.6608 59.2786 58.9536 59.2786C60.2243 59.2786 61.4625 59.1384 62.6552 58.8752C62.316 61.1339 61.6187 63.2572 60.6056 65.0908C57.8867 70.0147 57.9431 74.5995 58.0029 79.4535C58.0137 80.3365 58.0251 81.2496 58.02 82.1816C57.9862 88.1046 57.9442 95.4758 53.6167 99.3781C51.9745 100.86 49.5345 102.109 48.2489 101.505C47.454 101.131 47.2536 99.9942 46.876 97.4585C46.6496 95.9377 46.3676 94.045 45.792 91.7744C44.8192 87.9368 43.2355 80.5263 39.0902 78.3497C37.706 77.6229 36.2011 77.5601 34.6173 78.1621C32.459 78.9819 30.7973 80.9254 29.5373 84.1031C29.3018 84.6974 29.5924 85.3701 30.1867 85.6055C30.781 85.8417 31.4537 85.5506 31.6893 84.9563C32.6962 82.4167 33.923 80.9021 35.4398 80.3257C36.3901 79.9645 37.2322 79.9882 38.0145 80.3992C41.1488 82.0453 42.7179 89.0666 43.5484 92.3427C44.0955 94.5009 44.3679 96.3298 44.5867 97.7992C45.0089 100.634 45.3138 102.682 47.2645 103.599C49.9401 104.857 53.155 102.911 55.1673 101.097C60.2533 96.5107 60.2985 88.5728 60.3349 82.1883C60.34 81.2415 60.3286 80.318 60.3176 79.425C60.2593 74.6885 60.2088 70.5979 62.6319 66.2097C63.9376 63.8468 64.7768 61.0733 65.0792 58.1469C71.5226 55.6756 76.1094 49.4252 76.1094 42.1228C76.1087 33.0921 69.0534 25.5718 60.0466 25.0019ZM16.8165 61.5067C16.1793 61.5563 15.7028 62.1132 15.7523 62.7504C15.8043 63.4195 15.9111 64.0888 16.0694 64.7395C16.1981 65.2688 16.6716 65.6236 17.193 65.6236C17.9271 65.6236 18.4936 64.9118 18.3185 64.1923C18.1895 63.6619 18.1026 63.1166 18.0601 62.5712C18.0105 61.9336 17.4524 61.4557 16.8165 61.5067Z" fill="#4D8D63"/>
</svg>
