<svg width="113" height="114" viewBox="0 0 113 114" fill="none" xmlns="http://www.w3.org/2000/svg">
<circle cx="70.8108" cy="41.5" r="41.5" fill="#E3FFD1"/>
<path d="M28.7814 52.0625C28.16 52.0625 27.6558 52.5661 27.6558 53.1881V54.3912C27.6558 55.0126 28.16 55.5168 28.7814 55.5168C29.4034 55.5168 29.9071 55.0126 29.9071 54.3912V53.1881C29.9071 52.5661 29.4034 52.0625 28.7814 52.0625Z" fill="#4D8D63"/>
<path d="M43.2192 52.0625C42.5977 52.0625 42.0935 52.5661 42.0935 53.1881V54.3912C42.0935 55.0126 42.5977 55.5168 43.2192 55.5168C43.8406 55.5168 44.3448 55.0126 44.3448 54.3912V53.1881C44.3448 52.5661 43.8406 52.0625 43.2192 52.0625Z" fill="#4D8D63"/>
<path d="M27.5785 50.7041H29.9846C30.6066 50.7041 31.1103 50.1999 31.1103 49.5785C31.1103 48.957 30.6066 48.4528 29.9846 48.4528H27.5785C26.9571 48.4528 26.4529 48.957 26.4529 49.5785C26.4529 50.1999 26.9571 50.7041 27.5785 50.7041Z" fill="#4D8D63"/>
<path d="M42.016 50.7041H44.4221C45.0436 50.7041 45.5478 50.1999 45.5478 49.5785C45.5478 48.957 45.0436 48.4528 44.4221 48.4528H42.016C41.394 48.4528 40.8904 48.957 40.8904 49.5785C40.8904 50.1999 41.394 50.7041 42.016 50.7041Z" fill="#4D8D63"/>
<path d="M24.5607 91.5592C24.3063 90.9917 23.6409 90.7385 23.0734 90.9929C22.5058 91.2473 22.2526 91.9134 22.507 92.4809L24.3444 96.5772H20.2827V95.2968C20.2827 94.6753 19.7785 94.1711 19.157 94.1711C18.535 94.1711 18.0314 94.6753 18.0314 95.2968V96.5772H13.1413C12.5198 96.5772 12.0156 97.0814 12.0156 97.7028V103.718C12.0156 104.34 12.5198 104.844 13.1413 104.844H25.1722C25.7943 104.844 26.2979 104.34 26.2979 103.718V100.932L27.7548 104.179C27.9424 104.597 28.3522 104.844 28.7825 104.844C28.9367 104.844 29.0927 104.813 29.2427 104.745C29.8097 104.491 30.0635 103.825 29.8085 103.258L24.5607 91.5592ZM24.0466 102.593H14.2669V98.8285H24.0466V102.593Z" fill="#4D8D63"/>
<path d="M60.1085 80.4136L51.9951 77.919C52.008 77.6739 51.9904 77.4259 51.9323 77.1815C51.7547 76.4287 51.2563 75.7996 50.5651 75.4537L45.5478 72.945V70.5794C49.4348 67.8861 51.9657 63.7452 52.6054 59.1259H53.2731C55.467 59.1259 57.3489 57.4955 57.5576 55.4148C57.6743 54.2481 57.2926 53.0838 56.5105 52.2196C56.1324 51.8016 55.6751 51.4704 55.1727 51.2394V38.7505C55.1727 34.16 51.3513 30.3568 46.6183 30.3926C44.5922 28.9058 41.6238 28 38.3313 28H17.9536C17.3321 28 16.8279 28.5042 16.8279 29.1256C16.8279 31.3898 17.3556 33.5327 18.293 35.4398C17.7126 36.2436 16.8279 37.989 16.8279 41.1566V51.2892C15.5328 51.9071 14.5872 53.1301 14.443 54.57C14.3263 55.7361 14.7079 56.901 15.4895 57.7652C16.2721 58.63 17.3896 59.1259 18.5551 59.1259H19.3946C20.0343 63.7452 22.5652 67.8861 26.4528 70.5794V72.945L21.4349 75.4537C20.7442 75.7996 20.2459 76.4293 20.0683 77.1815C20.0102 77.4259 19.9926 77.6739 20.0055 77.919L11.8921 80.4136C8.36797 81.497 6 84.7022 6 88.3893V103.718C6 104.34 6.5042 104.844 7.12565 104.844C7.7471 104.844 8.2513 104.34 8.2513 103.718V88.3893C8.2513 85.6971 9.98022 83.3567 12.554 82.5652L20.9934 79.9704L22.4831 81.9567L20.79 83.6493C19.7136 84.7262 19.448 86.3643 20.1286 87.7262L20.556 88.581C20.8339 89.1374 21.5099 89.3631 22.0663 89.0846C22.6221 88.8067 22.8478 88.1307 22.5699 87.5744L22.1419 86.7196C21.8951 86.2259 21.9918 85.632 22.3823 85.2416L24.7649 82.8584C25.1612 82.462 25.2058 81.8353 24.8693 81.3868L22.3196 77.9864C22.2345 77.8733 22.2451 77.7578 22.2592 77.6986C22.2732 77.6393 22.3155 77.5309 22.4421 77.467L26.862 75.2573L34.9163 104.022C35.0523 104.508 35.4955 104.844 36.0003 104.844C36.5051 104.844 36.9477 104.508 37.0837 104.022L45.138 75.2573L49.5585 77.467C49.6845 77.5309 49.7273 77.6393 49.7408 77.6986C49.7549 77.7578 49.766 77.8733 49.681 77.9864L47.1307 81.3868C46.7948 81.8353 46.8394 82.462 47.2351 82.8584L49.6183 85.2416C50.0088 85.632 50.1049 86.2259 49.8581 86.7196C49.8528 86.7295 49.8481 86.7395 49.8434 86.7495L42.1972 103.245C41.9357 103.809 42.1814 104.478 42.7454 104.74C42.8984 104.811 43.0596 104.844 43.2179 104.844C43.643 104.844 44.0493 104.603 44.2398 104.192L51.8796 87.7104C52.5503 86.3514 52.2823 84.7215 51.21 83.6493L49.5175 81.9567L51.0066 79.9704L59.4466 82.5652C62.0198 83.3567 63.7487 85.6971 63.7487 88.3893V103.718C63.7487 104.34 64.2529 104.844 64.8744 104.844C65.4964 104.844 66 104.34 66 103.718V88.3893C66.0006 84.7022 63.6326 81.497 60.1085 80.4136ZM47.656 65.4548C47.8489 64.6041 47.9539 63.7206 47.9539 62.8124V60.329H50.0815C49.6183 62.1881 48.7928 63.9275 47.656 65.4548ZM38.3313 30.2513C42.4845 30.2513 46.195 31.989 46.9636 34.2943C47.16 34.884 47.7973 35.2024 48.3871 35.006C48.9775 34.8096 49.2958 34.1717 49.0994 33.5819C49.035 33.3879 48.9576 33.1973 48.8702 33.0103C51.2282 33.8516 52.9214 36.107 52.9214 38.7505V50.8589H51.6409C50.9351 50.8589 50.3605 50.2843 50.3605 49.5784V45.9693C50.3605 43.3581 48.2364 41.234 45.6258 41.234H31.1881C24.891 41.234 19.7013 36.4025 19.1314 30.2513H38.3313ZM21.4859 56.7973C21.4859 56.1752 20.9817 55.6716 20.3602 55.6716C19.7382 55.6716 19.2346 56.1752 19.2346 56.7973V56.8746H18.5557C18.0245 56.8746 17.5156 56.6483 17.1592 56.2544C16.798 55.8551 16.6292 55.3368 16.6837 54.7945C16.7781 53.85 17.6757 53.1102 18.7275 53.1102H20.3602C22.3078 53.1102 23.892 51.5261 23.892 49.5784V45.3297C23.892 44.7083 23.3878 44.2041 22.7663 44.2041C22.1448 44.2041 21.6407 44.7083 21.6407 45.3297V49.5784C21.6407 50.2843 21.0661 50.8589 20.3602 50.8589H19.0798V41.1566C19.0798 39.5092 19.3583 38.3829 19.6461 37.6589C22.2645 41.1912 26.4634 43.4853 31.1881 43.4853H45.6252C46.9947 43.4853 48.1092 44.5998 48.1092 45.9693V49.5784C48.1092 51.5261 49.6933 53.1102 51.6409 53.1102H53.4455C53.9767 53.1102 54.485 53.3365 54.842 53.7304C55.2032 54.1291 55.372 54.648 55.3175 55.1903C55.2231 56.1348 54.3255 56.8746 53.2737 56.8746H52.766V56.809C52.766 56.1875 52.2624 55.6833 51.6409 55.6833H51.6404C51.0189 55.6833 50.5153 56.1864 50.5147 56.8078C50.5147 57.2346 50.4942 57.6579 50.4578 58.0777H21.5427C21.5058 57.6544 21.4859 57.2276 21.4859 56.7973ZM21.9185 60.329H24.0467V62.8124C24.0467 63.7212 24.1523 64.6047 24.3451 65.456C23.2078 63.9281 22.3817 62.1886 21.9185 60.329ZM36.0003 99.5438L31.5393 83.6117C32.9628 84.1241 34.473 84.3909 36.0003 84.3909C37.5287 84.3909 39.0384 84.1241 40.4613 83.6123L36.0003 99.5438ZM43.2965 73.4862L41.2498 80.7947C39.6493 81.6753 37.8412 82.1396 36.0003 82.1396C34.1606 82.1396 32.3513 81.6747 30.7508 80.7941L28.7041 73.4862V72.2714C30.7244 73.8332 33.2548 74.7666 36.0003 74.7666C38.7458 74.7666 41.2762 73.8338 43.2965 72.2714V73.4862ZM36.0003 72.5153C30.6505 72.5153 26.298 68.1628 26.298 62.8124V60.329H45.7026V62.8124C45.7026 68.1628 41.3501 72.5153 36.0003 72.5153Z" fill="#4D8D63"/>
</svg>
