<svg width="113" height="114" viewBox="0 0 113 114" fill="none" xmlns="http://www.w3.org/2000/svg">
<rect width="112.311" height="113.739" fill="white"/>
<circle cx="70.8108" cy="41.5" r="41.5" fill="#E3FFD1"/>
<path d="M84.2015 77.9548C86.6768 77.9548 88.6906 75.941 88.6906 73.4656C88.6906 70.9902 86.6768 68.9764 84.2015 68.9764H84.1918V46.9468C84.1918 45.905 83.7859 44.9254 83.049 44.1885L76.4456 37.585C75.938 37.0776 75.1155 37.0776 74.6081 37.585C74.1007 38.0924 74.1007 38.915 74.6081 39.4223L81.2116 46.0257C81.4579 46.2719 81.5934 46.5991 81.5934 46.9468V68.9766H78.988V48.0243C78.988 47.6797 78.8512 47.3492 78.6074 47.1054L62.3248 30.8246C61.8169 30.3158 61.8169 29.4881 62.3242 28.98C62.5701 28.7339 62.8981 28.5984 63.2468 28.5984C63.5937 28.5984 63.9215 28.7346 64.1676 28.98L70.9911 35.8052C71.4985 36.3126 72.3208 36.3128 72.8284 35.8054C73.3358 35.298 73.3359 34.4755 72.8286 33.968L66.0035 27.1411C65.2649 26.4052 64.286 26 63.2468 26C62.2038 26 61.2235 26.4059 60.4859 27.1435C59.9781 27.6521 59.6441 28.2683 59.4759 28.9191C56.9148 27.4347 53.9978 26.6427 50.9585 26.6427C46.4102 26.6427 42.1342 28.4139 38.9181 31.6301C38.4107 32.1375 38.4107 32.9601 38.9181 33.4674L61.1613 55.7107C61.4151 55.9643 61.7477 56.0913 62.0801 56.0913C62.4125 56.0913 62.7451 55.9645 62.9989 55.7107C66.2149 52.4948 67.9861 48.2186 67.9861 43.6703C67.9861 42.3138 67.8273 40.982 67.521 39.6949L76.3896 48.5626V68.9767H62.0591C59.5839 68.9767 57.5701 70.9905 57.5701 73.466C57.5701 75.9414 59.5839 77.9552 62.0591 77.9552H76.3898V91.8413L66.8435 86.4357C65.8698 85.883 64.7615 85.5909 63.6384 85.5909H45.0736V83.5633C50.6456 81.7161 54.6779 76.4597 54.6779 70.2758C54.6779 69.5583 54.0963 68.9766 53.3786 68.9766H51.0654V59.9372C51.0654 55.5112 47.4646 51.9105 43.0386 51.9105C38.6127 51.9105 35.0118 55.5114 35.0118 59.9372V62.2203C35.0118 62.9378 35.5935 63.5195 36.311 63.5195H40.594C41.3116 63.5195 41.8933 62.9378 41.8933 62.2203V59.9372C41.8933 59.3056 42.4071 58.7918 43.0386 58.7918C43.6702 58.7918 44.184 59.3056 44.184 59.9372V68.9766H27.9816C27.2641 68.9766 26.6824 69.5583 26.6824 70.2758C26.6824 76.459 30.7141 81.7153 36.2855 83.5627V85.5906H26.3032L12.291 58.2262C11.4995 56.6798 10.153 55.534 8.49951 55.0002C6.84552 54.4663 5.08362 54.6087 3.53877 55.4008C0.347035 57.0346 -0.920303 60.9608 0.71376 64.1532L15.1038 92.256C15.4309 92.8949 16.2139 93.1473 16.8524 92.8202C17.4911 92.4932 17.7437 91.7104 17.4166 91.0717L3.0267 62.9692C2.55137 62.0407 2.46596 60.9826 2.78626 59.99C3.10656 58.9974 3.79428 58.1891 4.72365 57.7134C5.65111 57.2377 6.70867 57.1523 7.7011 57.473C8.69387 57.7935 9.5025 58.4815 9.97801 59.4104L24.3525 87.482C24.5748 87.916 25.0213 88.1891 25.509 88.1891H63.6383C64.3126 88.1891 64.9771 88.3643 65.5618 88.696L81.6724 97.8186C82.5801 98.332 83.2335 99.1684 83.5117 100.173C83.7901 101.178 83.6603 102.232 83.1457 103.14C82.4543 104.363 81.1504 105.122 79.7431 105.122C79.0746 105.122 78.4115 104.947 77.8248 104.613L62.9081 96.1668C62.7129 96.0563 62.4924 95.9981 62.268 95.9981H22.3268C21.3932 95.9981 20.4895 95.6631 19.7822 95.0547C19.2381 94.5868 18.4179 94.6485 17.95 95.1924C17.4821 95.7365 17.5438 96.5568 18.0877 97.0247C19.2663 98.0384 20.7717 98.5965 22.3268 98.5965H29.2725L24.0594 112.236C23.9068 112.636 23.9605 113.084 24.2028 113.437C24.4452 113.789 24.8453 113.999 25.273 113.999H55.2313C55.6588 113.999 56.059 113.789 56.3015 113.437C56.544 113.084 56.5976 112.635 56.445 112.236L51.2318 98.5965H61.9254L76.3894 106.787V112.701C76.3894 113.418 76.971 114 77.6886 114H82.8924C83.6101 114 84.1916 113.418 84.1916 112.701V105.958C84.6656 105.515 85.0787 105 85.4068 104.42C86.2633 102.908 86.4795 101.154 86.0159 99.4793C85.6911 98.3074 85.0595 97.2739 84.1918 96.4657V77.9548H84.2015ZM62.0392 52.9136L41.7147 32.5891C44.3042 30.4213 47.5407 29.2409 50.9585 29.2409C54.8126 29.2409 58.436 30.742 61.1613 33.4672C66.4776 38.7834 66.7701 47.2504 62.0392 52.9136ZM43.0386 56.1934C40.9743 56.1934 39.2948 57.8728 39.2948 59.9372V60.9211H37.6102V59.9372C37.6102 56.944 40.0454 54.5089 43.0386 54.5089C46.0317 54.5089 48.4669 56.9441 48.4669 59.9372V68.9766H46.7825V59.9372C46.7825 57.8728 45.103 56.1934 43.0386 56.1934ZM29.3545 71.575H52.0056C51.3588 77.251 46.5262 81.6749 40.68 81.6749C34.8337 81.6749 30.0013 77.251 29.3545 71.575ZM38.8839 84.1541C39.4726 84.23 40.0712 84.2733 40.6801 84.2733C41.2885 84.2733 41.8868 84.23 42.475 84.1543V85.5906H38.8839V84.1541ZM27.1605 111.401L32.0542 98.5969H48.4503L53.344 111.401H27.1605ZM60.1683 73.4658C60.1683 72.4233 61.0165 71.575 62.0589 71.575H84.2013C85.2438 71.575 86.0919 72.4231 86.0919 73.4658C86.0919 74.5084 85.2438 75.3566 84.2013 75.3566H62.0591C61.0166 75.3564 60.1683 74.5083 60.1683 73.4658ZM81.5934 111.402H78.988V107.674C79.2383 107.703 79.4904 107.72 79.7431 107.72C80.3785 107.72 81.0001 107.624 81.5934 107.448V111.402ZM81.5934 94.7876L78.988 93.3124V77.955H81.5934V94.7876Z" fill="#4D8D63"/>
</svg>
