<svg width="60" height="60" viewBox="0 0 60 60" fill="none" xmlns="http://www.w3.org/2000/svg">
<path d="M30 0C13.3333 0 0 13.3333 0 30C0 46.6667 13.3333 60 30 60C46.6667 60 60 46.6667 60 30C60 13.3333 46.6667 0 30 0ZM30 23.3333C33.6667 23.3333 36.6667 26.3333 36.6667 30C36.6667 33.6667 33.6667 36.6667 30 36.6667C26.3333 36.6667 23.3333 33.6667 23.3333 30C23.3333 26.3333 26.3333 23.3333 30 23.3333ZM39.3333 16.6667C39.3333 14.3333 41.3333 12.6667 43.3333 12.6667C45.3333 12.6667 47.3333 14.6667 47.3333 16.6667C47.3333 18.6667 45.6667 20.6667 43.3333 20.6667C41 20.6667 39.3333 19 39.3333 16.6667ZM30 53.3333C17 53.3333 6.66667 43 6.66667 30H16.6667C16.6667 37.3333 22.6667 43.3333 30 43.3333C37.3333 43.3333 43.3333 37.3333 43.3333 30H53.3333C53.3333 43 43 53.3333 30 53.3333Z" fill="#E3FFD1"/>
</svg>
