<svg width="40" height="40" viewBox="0 0 40 40" fill="none" xmlns="http://www.w3.org/2000/svg">
<path d="M31.6618 33.3332C17.4434 33.3532 6.65176 22.4332 6.66676 8.33817C6.66676 7.4165 7.41343 6.6665 8.33343 6.6665H12.7334C13.5584 6.6665 14.2601 7.27317 14.3818 8.08984C14.6719 10.0483 15.2416 11.9549 16.0734 13.7515L16.2451 14.1215C16.3604 14.3705 16.3852 14.6519 16.3152 14.9172C16.2453 15.1825 16.0849 15.4151 15.8618 15.5748C14.4984 16.5482 13.9784 18.5065 15.0401 20.0332C16.3767 21.9554 18.045 23.6242 19.9668 24.9615C21.4951 26.0215 23.4534 25.5015 24.4251 24.1398C24.5847 23.916 24.8174 23.7551 25.0831 23.6848C25.3488 23.6145 25.6307 23.6392 25.8801 23.7548L26.2484 23.9248C28.0451 24.7582 29.9518 25.3282 31.9101 25.6182C32.7268 25.7398 33.3334 26.4415 33.3334 27.2682V31.6665C33.3334 31.8855 33.2903 32.1024 33.2064 32.3047C33.1225 32.507 32.9996 32.6908 32.8447 32.8456C32.6897 33.0004 32.5058 33.1231 32.3034 33.2068C32.101 33.2904 31.8841 33.3334 31.6651 33.3332H31.6618Z" fill="#4D8D63"/>
</svg>
